<svg xmlns="http://www.w3.org/2000/svg" xmlns:xlink="http://www.w3.org/1999/xlink" width="500" zoomAndPan="magnify" viewBox="0 0 375 374.999991" height="500" preserveAspectRatio="xMidYMid meet" version="1.0"><defs><g/><clipPath id="8071098159"><path d="M 94.316406 85.855469 L 280.316406 85.855469 L 280.316406 271.855469 L 94.316406 271.855469 Z M 94.316406 85.855469 " clip-rule="nonzero"/></clipPath></defs><rect x="-37.5" width="450" fill="#ffffff" y="-37.499999" height="449.999989" fill-opacity="1"/><rect x="-37.5" width="450" fill="#000000" y="-37.499999" height="449.999989" fill-opacity="1"/><g clip-path="url(#8071098159)"><path fill="#ffffff" d="M 280.691406 179.042969 C 280.691406 191.617188 278.226562 203.824219 273.367188 215.316406 C 268.671875 226.410156 261.953125 236.378906 253.394531 244.933594 C 244.839844 253.492188 234.875 260.207031 223.777344 264.90625 C 212.285156 269.765625 200.078125 272.230469 187.5 272.230469 C 177.582031 272.230469 167.890625 270.695312 158.597656 267.660156 L 158.597656 253.800781 C 167.800781 257.363281 177.511719 259.171875 187.5 259.171875 C 198.324219 259.171875 208.816406 257.054688 218.691406 252.878906 C 228.230469 248.84375 236.804688 243.0625 244.164062 235.703125 C 251.523438 228.34375 257.304688 219.773438 261.339844 210.230469 C 265.515625 200.355469 267.632812 189.863281 267.632812 179.042969 C 267.632812 168.21875 265.515625 157.726562 261.339844 147.851562 C 257.304688 138.3125 251.523438 129.738281 244.164062 122.378906 C 236.804688 115.019531 228.230469 109.238281 218.691406 105.203125 C 208.816406 101.03125 198.324219 98.914062 187.5 98.914062 C 176.679688 98.914062 166.1875 101.03125 156.3125 105.207031 C 146.773438 109.242188 138.199219 115.023438 130.839844 122.382812 C 123.480469 129.742188 117.699219 138.316406 113.664062 147.855469 C 109.488281 157.730469 107.371094 168.222656 107.371094 179.046875 C 107.371094 189.867188 109.488281 200.359375 113.664062 210.234375 C 116.710938 217.445312 120.757812 224.09375 125.726562 230.089844 L 125.726562 248.816406 C 124.320312 247.566406 122.945312 246.277344 121.605469 244.9375 C 113.046875 236.382812 106.332031 226.417969 101.632812 215.320312 C 96.78125 203.824219 94.316406 191.621094 94.316406 179.042969 C 94.316406 166.464844 96.78125 154.257812 101.640625 142.765625 C 106.335938 131.671875 113.054688 121.703125 121.613281 113.148438 C 130.167969 104.589844 140.132812 97.875 151.230469 93.179688 C 162.722656 88.320312 174.925781 85.855469 187.5 85.855469 C 200.078125 85.855469 212.285156 88.320312 223.777344 93.179688 C 234.871094 97.875 244.839844 104.59375 253.394531 113.152344 C 261.953125 121.707031 268.667969 131.671875 273.367188 142.769531 C 278.222656 154.261719 280.691406 166.464844 280.691406 179.042969 Z M 239.644531 179.042969 C 239.644531 186.078125 238.265625 192.90625 235.542969 199.339844 C 232.917969 205.550781 229.160156 211.125 224.371094 215.910156 C 219.585938 220.699219 214.011719 224.457031 207.800781 227.082031 C 201.367188 229.800781 194.539062 231.183594 187.5 231.183594 C 180.464844 231.183594 173.632812 229.804688 167.199219 227.082031 C 160.992188 224.457031 155.414062 220.699219 150.628906 215.910156 C 149.859375 215.140625 149.125 214.355469 148.414062 213.550781 L 148.414062 263.652344 C 143.851562 261.546875 139.492188 259.089844 135.355469 256.289062 L 135.355469 179.289062 L 135.359375 179.289062 C 135.359375 179.207031 135.355469 179.125 135.355469 179.042969 C 135.355469 172.003906 136.734375 165.171875 139.457031 158.742188 C 142.082031 152.53125 145.839844 146.957031 150.628906 142.171875 C 155.414062 137.382812 160.988281 133.625 167.199219 131 C 173.632812 128.28125 180.460938 126.898438 187.5 126.898438 C 194.539062 126.898438 201.367188 128.277344 207.800781 131 C 214.011719 133.625 219.585938 137.382812 224.371094 142.171875 C 229.160156 146.957031 232.917969 152.53125 235.546875 158.742188 C 238.265625 165.175781 239.644531 172.003906 239.644531 179.042969 Z M 226.589844 179.042969 C 226.589844 168.601562 222.523438 158.785156 215.140625 151.402344 C 207.757812 144.019531 197.941406 139.957031 187.5 139.957031 C 177.0625 139.957031 167.246094 144.019531 159.863281 151.402344 C 152.480469 158.785156 148.417969 168.601562 148.417969 179.042969 C 148.417969 189.480469 152.480469 199.296875 159.863281 206.679688 C 167.246094 214.0625 177.0625 218.128906 187.5 218.128906 C 197.941406 218.128906 207.757812 214.0625 215.140625 206.679688 C 222.523438 199.296875 226.589844 189.480469 226.589844 179.042969 Z M 226.589844 179.042969 " fill-opacity="1" fill-rule="nonzero"/></g><g fill="#000000" fill-opacity="1"><g transform="translate(132.677145, 90.763629)"><g><path d="M -2.546875 -5.109375 L 0.140625 -6.890625 L 0.4375 -6.4375 L -1.78125 -4.96875 L -0.796875 -3.484375 L 1.421875 -4.953125 L 1.71875 -4.484375 L -0.5 -3.015625 L 0.75 -1.140625 L 2.96875 -2.609375 L 3.265625 -2.15625 L 0.578125 -0.375 Z M -2.546875 -5.109375 "/></g></g></g><g fill="#000000" fill-opacity="1"><g transform="translate(138.390349, 87.102368)"><g><path d="M -2.203125 -5.28125 L 0.28125 -6.671875 L 0.546875 -6.1875 L -1.4375 -5.0625 L -0.546875 -3.515625 L 1.4375 -4.640625 L 1.703125 -4.171875 L -0.28125 -3.046875 L 1.09375 -0.609375 L 0.59375 -0.34375 Z M -2.203125 -5.28125 "/></g></g></g><g fill="#000000" fill-opacity="1"><g transform="translate(143.996741, 84.024289)"><g><path d="M -1.84375 -5.40625 L 0.71875 -6.640625 L 0.96875 -6.15625 L -1.09375 -5.171875 L -0.328125 -3.5625 L 1.734375 -4.546875 L 1.96875 -4.046875 L -0.09375 -3.0625 L 1.125 -0.546875 L 0.625 -0.296875 Z M -1.84375 -5.40625 "/></g></g></g><g fill="#000000" fill-opacity="1"><g transform="translate(149.744476, 81.301788)"><g><path d="M 3.25 -1.109375 C 2.71875 -0.898438 2.191406 -0.835938 1.671875 -0.921875 C 1.160156 -1.015625 0.695312 -1.222656 0.28125 -1.546875 C -0.125 -1.878906 -0.421875 -2.289062 -0.609375 -2.78125 C -0.804688 -3.289062 -0.859375 -3.804688 -0.765625 -4.328125 C -0.679688 -4.859375 -0.476562 -5.328125 -0.15625 -5.734375 C 0.164062 -6.140625 0.582031 -6.441406 1.09375 -6.640625 C 1.613281 -6.835938 2.132812 -6.898438 2.65625 -6.828125 C 3.175781 -6.753906 3.644531 -6.550781 4.0625 -6.21875 C 4.476562 -5.882812 4.785156 -5.460938 4.984375 -4.953125 C 5.179688 -4.429688 5.238281 -3.910156 5.15625 -3.390625 C 5.070312 -2.867188 4.863281 -2.40625 4.53125 -2 C 4.195312 -1.601562 3.769531 -1.304688 3.25 -1.109375 Z M 3.046875 -1.609375 C 3.460938 -1.765625 3.800781 -2.003906 4.0625 -2.328125 C 4.332031 -2.660156 4.5 -3.039062 4.5625 -3.46875 C 4.625 -3.894531 4.578125 -4.320312 4.421875 -4.75 C 4.253906 -5.1875 4 -5.535156 3.65625 -5.796875 C 3.3125 -6.054688 2.929688 -6.21875 2.515625 -6.28125 C 2.109375 -6.34375 1.703125 -6.300781 1.296875 -6.15625 C 0.910156 -6 0.582031 -5.753906 0.3125 -5.421875 C 0.0507812 -5.097656 -0.113281 -4.722656 -0.1875 -4.296875 C -0.257812 -3.867188 -0.210938 -3.4375 -0.046875 -3 C 0.117188 -2.582031 0.367188 -2.238281 0.703125 -1.96875 C 1.035156 -1.707031 1.410156 -1.539062 1.828125 -1.46875 C 2.242188 -1.40625 2.648438 -1.453125 3.046875 -1.609375 Z M 3.046875 -1.609375 "/></g></g></g><g fill="#000000" fill-opacity="1"><g transform="translate(158.556769, 78.081353)"><g><path d="M 0.640625 -6.09375 C 1.265625 -6.269531 1.769531 -6.273438 2.15625 -6.109375 C 2.539062 -5.941406 2.796875 -5.632812 2.921875 -5.1875 C 3.015625 -4.851562 3.015625 -4.554688 2.921875 -4.296875 C 2.828125 -4.035156 2.65625 -3.804688 2.40625 -3.609375 C 2.15625 -3.421875 1.835938 -3.269531 1.453125 -3.15625 L 4.15625 -1.203125 L 3.484375 -1 L 0.8125 -2.984375 L 0.46875 -2.875 L 1.203125 -0.34375 L 0.65625 -0.1875 L -0.921875 -5.640625 Z M 1.296875 -3.6875 C 1.722656 -3.8125 2.03125 -3.984375 2.21875 -4.203125 C 2.40625 -4.429688 2.453125 -4.707031 2.359375 -5.03125 C 2.285156 -5.289062 2.117188 -5.476562 1.859375 -5.59375 C 1.609375 -5.707031 1.289062 -5.707031 0.90625 -5.59375 L -0.21875 -5.265625 L 0.3125 -3.40625 Z M 1.296875 -3.6875 "/></g></g></g><g fill="#000000" fill-opacity="1"><g transform="translate(165.539897, 76.183432)"><g><path d="M 0.296875 -5.3125 L -0.953125 -5.046875 L -1.0625 -5.578125 L 1.96875 -6.234375 L 2.078125 -5.703125 L 0.84375 -5.4375 L 1.921875 -0.421875 L 1.375 -0.296875 Z M 0.296875 -5.3125 "/></g></g></g><g fill="#000000" fill-opacity="1"><g transform="translate(171.359909, 75.00761)"><g><path d="M 0.390625 -5.796875 L 1.15625 -0.734375 L 3.328125 -1.0625 L 3.40625 -0.515625 L 0.6875 -0.109375 L -0.15625 -5.71875 Z M 0.390625 -5.796875 "/></g></g></g><g fill="#000000" fill-opacity="1"><g transform="translate(177.513589, 74.16219)"><g><path d="M 0.234375 -5.71875 L 3.453125 -5.96875 L 3.484375 -5.421875 L 0.828125 -5.203125 L 0.984375 -3.421875 L 3.640625 -3.640625 L 3.671875 -3.09375 L 1.015625 -2.875 L 1.203125 -0.640625 L 3.859375 -0.859375 L 3.90625 -0.3125 L 0.6875 -0.0625 Z M 0.234375 -5.71875 "/></g></g></g><g fill="#000000" fill-opacity="1"><g transform="translate(184.28402, 73.705554)"><g><path d="M 1.90625 0.109375 C 1.53125 0.117188 1.203125 0.03125 0.921875 -0.15625 C 0.648438 -0.351562 0.40625 -0.65625 0.1875 -1.0625 L 0.671875 -1.375 C 0.835938 -1.0625 1.019531 -0.820312 1.21875 -0.65625 C 1.425781 -0.5 1.640625 -0.421875 1.859375 -0.421875 C 2.054688 -0.429688 2.234375 -0.476562 2.390625 -0.5625 C 2.546875 -0.65625 2.671875 -0.773438 2.765625 -0.921875 C 2.859375 -1.066406 2.90625 -1.226562 2.90625 -1.40625 C 2.90625 -1.582031 2.851562 -1.742188 2.75 -1.890625 C 2.644531 -2.046875 2.5 -2.203125 2.3125 -2.359375 C 2.132812 -2.515625 1.8125 -2.773438 1.34375 -3.140625 C 1.132812 -3.304688 0.972656 -3.453125 0.859375 -3.578125 C 0.742188 -3.703125 0.65625 -3.832031 0.59375 -3.96875 C 0.539062 -4.113281 0.507812 -4.285156 0.5 -4.484375 C 0.5 -4.742188 0.554688 -4.976562 0.671875 -5.1875 C 0.796875 -5.394531 0.960938 -5.550781 1.171875 -5.65625 C 1.378906 -5.769531 1.609375 -5.832031 1.859375 -5.84375 C 2.171875 -5.84375 2.441406 -5.765625 2.671875 -5.609375 C 2.910156 -5.453125 3.140625 -5.226562 3.359375 -4.9375 L 2.90625 -4.5625 C 2.78125 -4.726562 2.671875 -4.859375 2.578125 -4.953125 C 2.484375 -5.046875 2.375 -5.117188 2.25 -5.171875 C 2.132812 -5.234375 2.003906 -5.265625 1.859375 -5.265625 C 1.703125 -5.253906 1.566406 -5.210938 1.453125 -5.140625 C 1.335938 -5.078125 1.25 -4.988281 1.1875 -4.875 C 1.125 -4.769531 1.09375 -4.65625 1.09375 -4.53125 C 1.101562 -4.351562 1.160156 -4.1875 1.265625 -4.03125 C 1.367188 -3.875 1.519531 -3.722656 1.71875 -3.578125 C 2.15625 -3.273438 2.488281 -3.023438 2.71875 -2.828125 C 2.945312 -2.628906 3.132812 -2.414062 3.28125 -2.1875 C 3.425781 -1.957031 3.5 -1.707031 3.5 -1.4375 C 3.5 -1.164062 3.429688 -0.910156 3.296875 -0.671875 C 3.160156 -0.429688 2.96875 -0.238281 2.71875 -0.09375 C 2.476562 0.0390625 2.207031 0.109375 1.90625 0.109375 Z M 1.90625 0.109375 "/></g></g></g><g fill="#000000" fill-opacity="1"><g transform="translate(190.695233, 73.709934)"><g><path d="M 1.90625 0.25 C 1.53125 0.226562 1.207031 0.113281 0.9375 -0.09375 C 0.675781 -0.3125 0.453125 -0.628906 0.265625 -1.046875 L 0.765625 -1.328125 C 0.910156 -1.003906 1.078125 -0.753906 1.265625 -0.578125 C 1.453125 -0.410156 1.65625 -0.320312 1.875 -0.3125 C 2.070312 -0.300781 2.253906 -0.332031 2.421875 -0.40625 C 2.585938 -0.488281 2.722656 -0.597656 2.828125 -0.734375 C 2.929688 -0.878906 2.988281 -1.039062 3 -1.21875 C 3.007812 -1.394531 2.96875 -1.5625 2.875 -1.71875 C 2.78125 -1.875 2.644531 -2.035156 2.46875 -2.203125 C 2.300781 -2.367188 2 -2.648438 1.5625 -3.046875 C 1.363281 -3.222656 1.207031 -3.375 1.09375 -3.5 C 0.988281 -3.632812 0.910156 -3.773438 0.859375 -3.921875 C 0.804688 -4.078125 0.789062 -4.253906 0.8125 -4.453125 C 0.820312 -4.710938 0.890625 -4.9375 1.015625 -5.125 C 1.148438 -5.320312 1.328125 -5.46875 1.546875 -5.5625 C 1.765625 -5.664062 2 -5.707031 2.25 -5.6875 C 2.5625 -5.675781 2.828125 -5.582031 3.046875 -5.40625 C 3.265625 -5.238281 3.476562 -5.003906 3.6875 -4.703125 L 3.21875 -4.375 C 3.101562 -4.539062 3 -4.671875 2.90625 -4.765625 C 2.820312 -4.867188 2.71875 -4.953125 2.59375 -5.015625 C 2.476562 -5.085938 2.347656 -5.125 2.203125 -5.125 C 2.046875 -5.132812 1.90625 -5.109375 1.78125 -5.046875 C 1.664062 -4.984375 1.570312 -4.898438 1.5 -4.796875 C 1.4375 -4.691406 1.40625 -4.578125 1.40625 -4.453125 C 1.394531 -4.273438 1.4375 -4.101562 1.53125 -3.9375 C 1.625 -3.78125 1.765625 -3.625 1.953125 -3.46875 C 2.367188 -3.132812 2.6875 -2.859375 2.90625 -2.640625 C 3.125 -2.429688 3.296875 -2.207031 3.421875 -1.96875 C 3.546875 -1.726562 3.601562 -1.472656 3.59375 -1.203125 C 3.570312 -0.929688 3.484375 -0.679688 3.328125 -0.453125 C 3.179688 -0.222656 2.984375 -0.046875 2.734375 0.078125 C 2.484375 0.203125 2.207031 0.257812 1.90625 0.25 Z M 1.90625 0.25 "/></g></g></g><g fill="#000000" fill-opacity="1"><g transform="translate(197.111323, 74.157296)"><g/></g></g><g fill="#000000" fill-opacity="1"><g transform="translate(201.840228, 74.734449)"><g><path d="M 2.84375 -5.265625 C 3.226562 -5.203125 3.535156 -5.085938 3.765625 -4.921875 C 4.003906 -4.765625 4.164062 -4.570312 4.25 -4.34375 C 4.332031 -4.113281 4.351562 -3.867188 4.3125 -3.609375 C 4.257812 -3.347656 4.160156 -3.128906 4.015625 -2.953125 C 3.867188 -2.773438 3.660156 -2.640625 3.390625 -2.546875 C 4.128906 -2.148438 4.4375 -1.597656 4.3125 -0.890625 C 4.257812 -0.609375 4.140625 -0.359375 3.953125 -0.140625 C 3.765625 0.078125 3.519531 0.234375 3.21875 0.328125 C 2.925781 0.429688 2.59375 0.453125 2.21875 0.390625 L 0.671875 0.125 L 1.65625 -5.46875 Z M 2.1875 -2.96875 C 2.625 -2.894531 2.972656 -2.910156 3.234375 -3.015625 C 3.503906 -3.128906 3.671875 -3.359375 3.734375 -3.703125 C 3.773438 -3.941406 3.71875 -4.148438 3.5625 -4.328125 C 3.414062 -4.515625 3.179688 -4.640625 2.859375 -4.703125 L 2.125 -4.828125 L 1.8125 -3.03125 Z M 2.203125 -0.15625 C 2.492188 -0.101562 2.75 -0.109375 2.96875 -0.171875 C 3.1875 -0.234375 3.359375 -0.335938 3.484375 -0.484375 C 3.617188 -0.640625 3.703125 -0.804688 3.734375 -0.984375 C 3.773438 -1.210938 3.742188 -1.425781 3.640625 -1.625 C 3.546875 -1.820312 3.382812 -1.984375 3.15625 -2.109375 C 2.925781 -2.234375 2.632812 -2.328125 2.28125 -2.390625 L 1.703125 -2.484375 L 1.328125 -0.3125 Z M 2.203125 -0.15625 "/></g></g></g><g fill="#000000" fill-opacity="1"><g transform="translate(208.809898, 76.078842)"><g><path d="M 1.984375 -5.359375 L 2.53125 -5.21875 L 1.21875 0.296875 L 0.671875 0.15625 Z M 1.984375 -5.359375 "/></g></g></g><g fill="#000000" fill-opacity="1"><g transform="translate(213.19922, 77.178304)"><g><path d="M 2.828125 -5.078125 L 1.359375 -0.171875 L 3.453125 0.453125 L 3.296875 0.984375 L 0.65625 0.203125 L 2.28125 -5.234375 Z M 2.828125 -5.078125 "/></g></g></g><g fill="#000000" fill-opacity="1"><g transform="translate(219.132736, 79.03928)"><g><path d="M 3.140625 -4.875 L 1.359375 -0.078125 L 3.40625 0.6875 L 3.21875 1.203125 L 0.640625 0.234375 L 2.609375 -5.078125 Z M 3.140625 -4.875 "/></g></g></g><g fill="#000000" fill-opacity="1"><g transform="translate(224.948786, 81.298667)"><g><path d="M 2.890625 -4.921875 L 3.40625 -4.703125 L 1.140625 0.5 L 0.625 0.28125 Z M 2.890625 -4.921875 "/></g></g></g><g fill="#000000" fill-opacity="1"><g transform="translate(229.064039, 83.116301)"><g><path d="M 6.65625 -2.9375 L 7.171875 -2.671875 L 4.5625 2.359375 L 4.453125 2.3125 L 3.09375 -3.234375 L 1.109375 0.578125 L 0.609375 0.3125 L 3.21875 -4.71875 L 3.328125 -4.65625 L 4.65625 0.921875 Z M 6.65625 -2.9375 "/></g></g></g><g fill="#000000" fill-opacity="1"><g transform="translate(236.406943, 87.026241)"><g><path d="M 6.953125 1.21875 L 6.9375 1.234375 C 6.613281 1.734375 6.234375 2.097656 5.796875 2.328125 C 5.367188 2.554688 4.910156 2.648438 4.421875 2.609375 C 3.941406 2.578125 3.46875 2.40625 3 2.09375 C 2.46875 1.75 2.066406 1.328125 1.796875 0.828125 C 1.535156 0.335938 1.414062 -0.164062 1.4375 -0.6875 C 1.46875 -1.207031 1.625 -1.691406 1.90625 -2.140625 C 2.195312 -2.585938 2.570312 -2.929688 3.03125 -3.171875 C 3.5 -3.410156 4.003906 -3.515625 4.546875 -3.484375 C 5.097656 -3.460938 5.628906 -3.289062 6.140625 -2.96875 C 6.566406 -2.6875 6.90625 -2.359375 7.15625 -1.984375 C 7.40625 -1.609375 7.597656 -1.160156 7.734375 -0.640625 L 7.15625 -0.53125 C 7.050781 -0.976562 6.882812 -1.367188 6.65625 -1.703125 C 6.4375 -2.035156 6.171875 -2.300781 5.859375 -2.5 C 5.460938 -2.757812 5.039062 -2.90625 4.59375 -2.9375 C 4.15625 -2.96875 3.742188 -2.882812 3.359375 -2.6875 C 2.972656 -2.5 2.660156 -2.21875 2.421875 -1.84375 C 2.179688 -1.476562 2.054688 -1.078125 2.046875 -0.640625 C 2.035156 -0.203125 2.140625 0.210938 2.359375 0.609375 C 2.578125 1.015625 2.898438 1.351562 3.328125 1.625 C 3.628906 1.820312 3.945312 1.945312 4.28125 2 C 4.625 2.050781 4.953125 2.019531 5.265625 1.90625 C 5.578125 1.800781 5.859375 1.613281 6.109375 1.34375 L 4.59375 0.359375 L 4.90625 -0.109375 Z M 6.953125 1.21875 "/></g></g></g><g fill="#000000" fill-opacity="1"><g transform="translate(106.601582, 302.813669)"><g><path d="M 13.53125 -18.984375 C 14.613281 -18.984375 15.601562 -18.722656 16.5 -18.203125 C 17.394531 -17.691406 18.109375 -16.992188 18.640625 -16.109375 C 19.171875 -15.234375 19.4375 -14.242188 19.4375 -13.140625 C 19.4375 -12.023438 19.15625 -11.007812 18.59375 -10.09375 C 18.03125 -9.1875 17.273438 -8.460938 16.328125 -7.921875 C 15.378906 -7.378906 14.347656 -7.109375 13.234375 -7.109375 L 6.859375 -7.109375 L 6.859375 0 L 3.9375 0 L 3.9375 -18.984375 Z M 13.0625 -9.921875 C 13.664062 -9.921875 14.21875 -10.066406 14.71875 -10.359375 C 15.226562 -10.660156 15.628906 -11.054688 15.921875 -11.546875 C 16.222656 -12.035156 16.375 -12.566406 16.375 -13.140625 C 16.375 -13.703125 16.222656 -14.207031 15.921875 -14.65625 C 15.628906 -15.113281 15.226562 -15.476562 14.71875 -15.75 C 14.21875 -16.019531 13.664062 -16.15625 13.0625 -16.15625 L 6.859375 -16.15625 L 6.859375 -9.921875 Z M 13.0625 -9.921875 "/></g></g></g><g fill="#000000" fill-opacity="1"><g transform="translate(128.640357, 302.813669)"><g><path d="M 19.796875 -13.046875 C 19.796875 -11.796875 19.40625 -10.660156 18.625 -9.640625 C 17.84375 -8.617188 16.859375 -7.890625 15.671875 -7.453125 L 20.734375 0.03125 L 17.140625 0 L 12.390625 -7.046875 L 6.859375 -7.046875 L 6.859375 0 L 3.9375 0 L 3.9375 -18.984375 L 13.6875 -18.984375 C 14.757812 -18.984375 15.753906 -18.726562 16.671875 -18.21875 C 17.597656 -17.707031 18.347656 -17.007812 18.921875 -16.125 C 19.503906 -15.238281 19.796875 -14.210938 19.796875 -13.046875 Z M 13.015625 -16.15625 L 6.859375 -16.15625 L 6.859375 -9.875 L 13.359375 -9.875 C 13.992188 -9.875 14.5625 -10.019531 15.0625 -10.3125 C 15.570312 -10.613281 15.972656 -11.003906 16.265625 -11.484375 C 16.566406 -11.972656 16.71875 -12.5 16.71875 -13.0625 C 16.71875 -13.664062 16.546875 -14.203125 16.203125 -14.671875 C 15.867188 -15.140625 15.421875 -15.503906 14.859375 -15.765625 C 14.296875 -16.023438 13.679688 -16.15625 13.015625 -16.15625 Z M 13.015625 -16.15625 "/></g></g></g><g fill="#000000" fill-opacity="1"><g transform="translate(152.2785, 302.813669)"><g><path d="M 23.53125 -9.484375 C 23.53125 -8.109375 23.269531 -6.828125 22.75 -5.640625 C 22.238281 -4.460938 21.515625 -3.429688 20.578125 -2.546875 C 19.640625 -1.660156 18.523438 -0.96875 17.234375 -0.46875 C 15.953125 0.0195312 14.554688 0.265625 13.046875 0.265625 C 11.484375 0.265625 10.0625 0.0195312 8.78125 -0.46875 C 7.5 -0.96875 6.390625 -1.660156 5.453125 -2.546875 C 4.523438 -3.429688 3.800781 -4.460938 3.28125 -5.640625 C 2.769531 -6.828125 2.515625 -8.109375 2.515625 -9.484375 C 2.515625 -10.859375 2.769531 -12.132812 3.28125 -13.3125 C 3.800781 -14.5 4.523438 -15.535156 5.453125 -16.421875 C 6.390625 -17.304688 7.5 -18 8.78125 -18.5 C 10.0625 -19 11.484375 -19.25 13.046875 -19.25 C 14.554688 -19.25 15.953125 -19 17.234375 -18.5 C 18.523438 -18 19.640625 -17.304688 20.578125 -16.421875 C 21.515625 -15.535156 22.238281 -14.5 22.75 -13.3125 C 23.269531 -12.132812 23.53125 -10.859375 23.53125 -9.484375 Z M 20.546875 -9.484375 C 20.546875 -10.804688 20.222656 -11.984375 19.578125 -13.015625 C 18.941406 -14.054688 18.054688 -14.878906 16.921875 -15.484375 C 15.796875 -16.097656 14.503906 -16.40625 13.046875 -16.40625 C 11.546875 -16.40625 10.226562 -16.097656 9.09375 -15.484375 C 7.96875 -14.878906 7.085938 -14.054688 6.453125 -13.015625 C 5.816406 -11.984375 5.5 -10.804688 5.5 -9.484375 C 5.5 -8.171875 5.816406 -6.992188 6.453125 -5.953125 C 7.085938 -4.910156 7.96875 -4.085938 9.09375 -3.484375 C 10.226562 -2.878906 11.546875 -2.578125 13.046875 -2.578125 C 14.503906 -2.578125 15.796875 -2.878906 16.921875 -3.484375 C 18.054688 -4.085938 18.941406 -4.910156 19.578125 -5.953125 C 20.222656 -7.003906 20.546875 -8.179688 20.546875 -9.484375 Z M 20.546875 -9.484375 "/></g></g></g><g fill="#000000" fill-opacity="1"><g transform="translate(178.329252, 302.813669)"><g><path d="M 23.53125 -9.484375 C 23.53125 -8.109375 23.269531 -6.828125 22.75 -5.640625 C 22.238281 -4.460938 21.515625 -3.429688 20.578125 -2.546875 C 19.640625 -1.660156 18.523438 -0.96875 17.234375 -0.46875 C 15.953125 0.0195312 14.554688 0.265625 13.046875 0.265625 C 11.484375 0.265625 10.0625 0.0195312 8.78125 -0.46875 C 7.5 -0.96875 6.390625 -1.660156 5.453125 -2.546875 C 4.523438 -3.429688 3.800781 -4.460938 3.28125 -5.640625 C 2.769531 -6.828125 2.515625 -8.109375 2.515625 -9.484375 C 2.515625 -10.859375 2.769531 -12.132812 3.28125 -13.3125 C 3.800781 -14.5 4.523438 -15.535156 5.453125 -16.421875 C 6.390625 -17.304688 7.5 -18 8.78125 -18.5 C 10.0625 -19 11.484375 -19.25 13.046875 -19.25 C 14.554688 -19.25 15.953125 -19 17.234375 -18.5 C 18.523438 -18 19.640625 -17.304688 20.578125 -16.421875 C 21.515625 -15.535156 22.238281 -14.5 22.75 -13.3125 C 23.269531 -12.132812 23.53125 -10.859375 23.53125 -9.484375 Z M 20.546875 -9.484375 C 20.546875 -10.804688 20.222656 -11.984375 19.578125 -13.015625 C 18.941406 -14.054688 18.054688 -14.878906 16.921875 -15.484375 C 15.796875 -16.097656 14.503906 -16.40625 13.046875 -16.40625 C 11.546875 -16.40625 10.226562 -16.097656 9.09375 -15.484375 C 7.96875 -14.878906 7.085938 -14.054688 6.453125 -13.015625 C 5.816406 -11.984375 5.5 -10.804688 5.5 -9.484375 C 5.5 -8.171875 5.816406 -6.992188 6.453125 -5.953125 C 7.085938 -4.910156 7.96875 -4.085938 9.09375 -3.484375 C 10.226562 -2.878906 11.546875 -2.578125 13.046875 -2.578125 C 14.503906 -2.578125 15.796875 -2.878906 16.921875 -3.484375 C 18.054688 -4.085938 18.941406 -4.910156 19.578125 -5.953125 C 20.222656 -7.003906 20.546875 -8.179688 20.546875 -9.484375 Z M 20.546875 -9.484375 "/></g></g></g><g fill="#000000" fill-opacity="1"><g transform="translate(204.380004, 302.813669)"><g><path d="M 3.9375 0 L 3.9375 -18.984375 L 18.0625 -18.984375 L 18.0625 -16.15625 L 6.859375 -16.15625 L 6.859375 -10.734375 L 16.828125 -10.734375 L 16.828125 -7.921875 L 6.859375 -7.921875 L 6.859375 0 Z M 3.9375 0 "/></g></g></g><g fill="#000000" fill-opacity="1"><g transform="translate(225.171815, 302.813669)"><g><path d="M 17.859375 -2.8125 L 17.859375 0 L 3.9375 0 L 3.9375 -18.984375 L 6.859375 -18.984375 L 6.859375 -2.8125 Z M 17.859375 -2.8125 "/></g></g></g><g fill="#000000" fill-opacity="1"><g transform="translate(245.93652, 302.813669)"><g><path d="M 21.125 -18.984375 L 12.953125 -7.78125 L 12.953125 0 L 10.03125 0 L 10.03125 -7.671875 L 1.328125 -18.984375 L 5.15625 -18.984375 L 11.546875 -10.390625 L 17.59375 -18.984375 Z M 21.125 -18.984375 "/></g></g></g></svg>